# xmcd
#
# Track frame offsets: 
#        150
#        18525
#        38171
#        49907
#        69523
#        92278
#        121068
#        137501
#        150038
#        163194
#        176724
#        191986
#        204715
#        217787
#        227694
#        241241
#        253176
#        265716
#        279187
#
# Disc length: 3888 seconds
#
# Revision: 1
# Processed by: cddbd v1.5.2PL0 Copyright (c) Steve Scherf et al.
# Submitted via: ExactAudioCopyFreeDBPlugin 1.0
#
DISCID=fc0f2e13
DTITLE=Ray Charles - Ray Charles:  Eighteen Classic Albums
DYEAR=2017
DGENRE=Rhythm and Blues
TTITLE0=Night Time is the Right Time (live)
TTITLE1=What'd I Say (live)
TTITLE2=Yes, Indeed (live)
TTITLE3=The Spirit Feel (live)
TTITLE4=Frenesi (live)
TTITLE5=Drown in My Own Tears (live)
TTITLE6=Tell the Truth (live)
TTITLE7=Early in the Mornin'
TTITLE8=Hard Times (No One Knows Better Than I)
TTITLE9=The  Midnight Hour
TTITLE10=Night Time is the Right Time
TTITLE11=Feelin' Sad
TTITLE12=Ray's Blues
TTITLE13=I'm Movin' On
TTITLE14=I Believe to My Soul
TTITLE15=Nobody Cares
TTITLE16=Mr. Charles' Blues
TTITLE17=Some Day Baby
TTITLE18=I Wonder Who
EXTD=YEAR: 1960
EXTT0=
EXTT1=
EXTT2=
EXTT3=
EXTT4=
EXTT5=
EXTT6=
EXTT7=
EXTT8=
EXTT9=
EXTT10=
EXTT11=
EXTT12=
EXTT13=
EXTT14=
EXTT15=
EXTT16=
EXTT17=
EXTT18=
PLAYORDER=
